<svg xmlns="http://www.w3.org/2000/svg" width="1100" height="800" viewBox="0 0 1100 800"><rect width="100%" height="100%" fill="black"/><path d="M 949.85,416.36 L 962.84,419.67 L 973.58,423.13 L 981.79,426.70 L 987.30,430.30 L 990.00,433.88 L 989.84,437.35 L 986.88,440.67 L 981.22,443.77 L 973.06,446.59 L 962.66,449.12 L 950.33,451.31 L 936.42,453.15 L 921.32,454.66 L 905.45,455.85 L 889.23,456.75 L 873.06,457.41 L 857.34,457.89 L 842.42,458.25 L 828.63,458.57 L 816.22,458.93 L 805.40,459.39 L 796.30,460.04 L 788.99,460.94 L 783.48,462.15 L 779.70,463.69 L 777.51,465.61 L 776.73,467.90 L 777.12,470.57 L 778.41,473.57 L 780.28,476.86 L 782.43,480.38 L 784.52,484.05 L 786.23,487.76 L 787.26,491.42 L 787.35,494.92 L 786.26,498.14 L 783.79,500.98 L 779.82,503.32 L 774.27,505.08 L 767.11,506.17 L 758.39,506.54 L 748.19,506.15 L 736.65,504.97 L 723.97,503.03 L 710.37,500.35 L 696.11,496.99 L 681.45,493.04 L 666.69,488.60 L 652.09,483.81 L 637.94,478.80 L 624.47,473.73 L 611.92,468.76 L 600.46,464.05 L 590.25,459.75 L 581.38,456.02 L 573.89,453.00 L 567.81,450.79 L 563.07,449.50 L 559.60,449.19 L 557.28,449.90 L 555.95,451.64 L 555.43,454.38 L 555.52,458.07 L 556.02,462.63 L 556.72,467.94 L 557.43,473.87 L 557.95,480.27 L 558.13,486.97 L 557.83,493.78 L 556.95,500.54 L 555.43,507.04 L 553.22,513.13 L 550.33,518.65 L 546.80,523.46 L 542.70,527.43 L 538.11,530.48 L 533.15,532.55 L 527.94,533.61 L 522.63,533.66 L 517.33,532.74 L 512.18,530.92 L 507.29,528.29 L 502.75,524.97 L 498.63,521.11 L 494.98,516.85 L 491.81,512.36 L 489.08,507.82 L 486.77,503.40 L 484.77,499.26 L 483.00,495.55 L 481.33,492.40 L 479.62,489.94 L 477.72,488.24 L 475.48,487.37 L 472.77,487.34 L 469.45,488.17 L 465.41,489.82 L 460.58,492.22 L 454.91,495.29 L 448.38,498.92 L 441.02,502.96 L 432.89,507.29 L 424.09,511.74 L 414.76,516.15 L 405.08,520.36 L 395.24,524.22 L 385.45,527.59 L 375.96,530.35 L 366.99,532.39 L 358.77,533.63 L 351.52,534.01 L 345.43,533.52 L 340.65,532.14 L 337.30,529.91 L 335.45,526.88 L 335.14,523.14 L 336.32,518.77 L 338.92,513.91 L 342.78,508.66 L 347.73,503.18 L 353.53,497.60 L 359.89,492.07 L 366.53,486.70 L 373.10,481.64 L 379.28,476.98 L 384.71,472.81 L 389.09,469.20 L 392.10,466.21 L 393.48,463.85 L 393.01,462.13 L 390.52,461.02 L 385.89,460.48 L 379.08,460.46 L 370.11,460.87 L 359.08,461.63 L 346.13,462.63 L 331.49,463.78 L 315.43,464.96 L 298.28,466.08 L 280.40,467.04 L 262.17,467.76 L 244.00,468.15 L 226.29,468.17 L 209.44,467.77 L 193.80,466.93 L 179.73,465.63 L 167.48,463.89 L 157.30,461.73 L 149.35,459.18 L 143.71,456.30 L 140.41,453.15 L 139.39,449.78 L 140.53,446.26 L 143.64,442.65 L 148.46,439.02 L 154.69,435.43 L 161.98,431.91 L 169.96,428.51 L 178.25,425.24 L 186.44,422.12 L 194.17,419.15 L 201.07,416.31 L 206.82,413.57 L 211.16,410.91 L 213.87,408.27 L 214.80,405.62 L 213.87,402.90 L 211.09,400.06 L 206.51,397.06 L 200.28,393.86 L 192.61,390.42 L 183.76,386.74 L 174.05,382.80 L 163.84,378.62 L 153.50,374.21 L 143.45,369.62 L 134.08,364.90 L 125.79,360.10 L 118.93,355.32 L 113.84,350.62 L 110.78,346.10 L 110.00,341.85 L 111.64,337.95 L 115.79,334.49 L 122.47,331.54 L 131.63,329.16 L 143.13,327.40 L 156.79,326.29 L 172.36,325.84 L 189.53,326.03 L 207.97,326.84 L 227.31,328.21 L 247.16,330.07 L 267.13,332.34 L 286.84,334.90 L 305.92,337.64 L 324.04,340.45 L 340.91,343.19 L 356.29,345.73 L 369.99,347.96 L 381.88,349.76 L 391.89,351.04 L 400.01,351.71 L 406.31,351.72 L 410.88,351.02 L 413.88,349.61 L 415.52,347.50 L 416.02,344.73 L 415.65,341.36 L 414.67,337.49 L 413.36,333.20 L 411.98,328.64 L 410.78,323.93 L 409.99,319.22 L 409.80,314.66 L 410.37,310.39 L 411.82,306.54 L 414.21,303.25 L 417.58,300.61 L 421.90,298.72 L 427.12,297.63 L 433.14,297.39 L 439.84,298.00 L 447.07,299.42 L 454.67,301.62 L 462.47,304.51 L 470.28,307.99 L 477.96,311.92 L 485.35,316.17 L 492.31,320.58 L 498.74,324.97 L 504.58,329.18 L 509.78,333.05 L 514.32,336.42 L 518.25,339.15 L 521.62,341.11 L 524.51,342.21 L 527.02,342.37 L 529.29,341.56 L 531.45,339.77 L 533.64,337.02 L 536.00,333.36 L 538.66,328.89 L 541.72,323.71 L 545.27,317.97 L 549.39,311.82 L 554.09,305.43 L 559.38,298.99 L 565.23,292.68 L 571.57,286.69 L 578.31,281.19 L 585.32,276.35 L 592.46,272.30 L 599.57,269.17 L 606.48,267.04 L 613.03,265.99 L 619.05,266.03 L 624.39,267.18 L 628.93,269.39 L 632.57,272.60 L 635.24,276.72 L 636.92,281.63 L 637.61,287.18 L 637.36,293.24 L 636.28,299.62 L 634.49,306.16 L 632.15,312.69 L 629.47,319.04 L 626.67,325.06 L 623.97,330.61 L 621.63,335.58 L 619.87,339.85 L 618.92,343.38 L 618.98,346.11 L 620.24,348.02 L 622.84,349.15 L 626.85,349.52 L 632.34,349.20 L 639.29,348.28 L 647.66,346.86 L 657.32,345.06 L 668.11,343.01 L 679.84,340.84 L 692.25,338.69 L 705.07,336.66 L 718.00,334.90 L 730.74,333.50 L 742.97,332.54 L 754.39,332.10 L 764.74,332.23 L 773.76,332.95 L 781.25,334.26 L 787.06,336.16 L 791.09,338.60 L 793.30,341.54 L 793.74,344.89 L 792.48,348.59 L 789.69,352.53 L 785.59,356.64 L 780.43,360.81 L 774.54,364.96 L 768.25,368.99 L 761.93,372.85 L 755.96,376.46 L 750.71,379.78 L 746.55,382.77 L 743.80,385.43 L 742.75,387.75 L 743.65,389.76 L 746.67,391.48 L 751.92,392.96 L 759.44,394.25 L 769.20,395.42 L 781.08,396.53 L 794.90,397.66 L 810.41,398.86 L 827.30,400.19 L 845.19,401.72 L 863.69,403.48 L 882.36,405.51 L 900.75,407.81 L 918.42,410.40 L 934.92,413.26 Z" fill="none" stroke="white" stroke-width="6.49" stroke-linecap="round" stroke-linejoin="round"/><path d="M 949.85,416.36 L 962.84,419.67 L 973.58,423.13 L 981.79,426.70 L 987.30,430.30 L 990.00,433.88 L 989.84,437.35 L 986.88,440.67 L 981.22,443.77 L 973.06,446.59 L 962.66,449.12 L 950.33,451.31 L 936.42,453.15 L 921.32,454.66 L 905.45,455.85 L 889.23,456.75 L 873.06,457.41 L 857.34,457.89 L 842.42,458.25 L 828.63,458.57 L 816.22,458.93 L 805.40,459.39 L 796.30,460.04 L 788.99,460.94 L 783.48,462.15 L 779.70,463.69 L 777.51,465.61 L 776.73,467.90 L 777.12,470.57 L 778.41,473.57 L 780.28,476.86 L 782.43,480.38 L 784.52,484.05 L 786.23,487.76 L 787.26,491.42 L 787.35,494.92 L 786.26,498.14 L 783.79,500.98 L 779.82,503.32 L 774.27,505.08 L 767.11,506.17 L 758.39,506.54 L 748.19,506.15 L 736.65,504.97 L 723.97,503.03 L 710.37,500.35 L 696.11,496.99 L 681.45,493.04 L 666.69,488.60 L 652.09,483.81 L 637.94,478.80 L 624.47,473.73 L 611.92,468.76 L 600.46,464.05 L 590.25,459.75 L 581.38,456.02 L 573.89,453.00 L 567.81,450.79 L 563.07,449.50 L 559.60,449.19 L 557.28,449.90 L 555.95,451.64 L 555.43,454.38 L 555.52,458.07 L 556.02,462.63 L 556.72,467.94 L 557.43,473.87 L 557.95,480.27 L 558.13,486.97 L 557.83,493.78 L 556.95,500.54 L 555.43,507.04 L 553.22,513.13 L 550.33,518.65 L 546.80,523.46 L 542.70,527.43 L 538.11,530.48 L 533.15,532.55 L 527.94,533.61 L 522.63,533.66 L 517.33,532.74 L 512.18,530.92 L 507.29,528.29 L 502.75,524.97 L 498.63,521.11 L 494.98,516.85 L 491.81,512.36 L 489.08,507.82 L 486.77,503.40 L 484.77,499.26 L 483.00,495.55 L 481.33,492.40 L 479.62,489.94 L 477.72,488.24 L 475.48,487.37 L 472.77,487.34 L 469.45,488.17 L 465.41,489.82 L 460.58,492.22 L 454.91,495.29 L 448.38,498.92 L 441.02,502.96 L 432.89,507.29 L 424.09,511.74 L 414.76,516.15 L 405.08,520.36 L 395.24,524.22 L 385.45,527.59 L 375.96,530.35 L 366.99,532.39 L 358.77,533.63 L 351.52,534.01 L 345.43,533.52 L 340.65,532.14 L 337.30,529.91 L 335.45,526.88 L 335.14,523.14 L 336.32,518.77 L 338.92,513.91 L 342.78,508.66 L 347.73,503.18 L 353.53,497.60 L 359.89,492.07 L 366.53,486.70 L 373.10,481.64 L 379.28,476.98 L 384.71,472.81 L 389.09,469.20 L 392.10,466.21 L 393.48,463.85 L 393.01,462.13 L 390.52,461.02 L 385.89,460.48 L 379.08,460.46 L 370.11,460.87 L 359.08,461.63 L 346.13,462.63 L 331.49,463.78 L 315.43,464.96 L 298.28,466.08 L 280.40,467.04 L 262.17,467.76 L 244.00,468.15 L 226.29,468.17 L 209.44,467.77 L 193.80,466.93 L 179.73,465.63 L 167.48,463.89 L 157.30,461.73 L 149.35,459.18 L 143.71,456.30 L 140.41,453.15 L 139.39,449.78 L 140.53,446.26 L 143.64,442.65 L 148.46,439.02 L 154.69,435.43 L 161.98,431.91 L 169.96,428.51 L 178.25,425.24 L 186.44,422.12 L 194.17,419.15 L 201.07,416.31 L 206.82,413.57 L 211.16,410.91 L 213.87,408.27 L 214.80,405.62 L 213.87,402.90 L 211.09,400.06 L 206.51,397.06 L 200.28,393.86 L 192.61,390.42 L 183.76,386.74 L 174.05,382.80 L 163.84,378.62 L 153.50,374.21 L 143.45,369.62 L 134.08,364.90 L 125.79,360.10 L 118.93,355.32 L 113.84,350.62 L 110.78,346.10 L 110.00,341.85 L 111.64,337.95 L 115.79,334.49 L 122.47,331.54 L 131.63,329.16 L 143.13,327.40 L 156.79,326.29 L 172.36,325.84 L 189.53,326.03 L 207.97,326.84 L 227.31,328.21 L 247.16,330.07 L 267.13,332.34 L 286.84,334.90 L 305.92,337.64 L 324.04,340.45 L 340.91,343.19 L 356.29,345.73 L 369.99,347.96 L 381.88,349.76 L 391.89,351.04 L 400.01,351.71 L 406.31,351.72 L 410.88,351.02 L 413.88,349.61 L 415.52,347.50 L 416.02,344.73 L 415.65,341.36 L 414.67,337.49 L 413.36,333.20 L 411.98,328.64 L 410.78,323.93 L 409.99,319.22 L 409.80,314.66 L 410.37,310.39 L 411.82,306.54 L 414.21,303.25 L 417.58,300.61 L 421.90,298.72 L 427.12,297.63 L 433.14,297.39 L 439.84,298.00 L 447.07,299.42 L 454.67,301.62 L 462.47,304.51 L 470.28,307.99 L 477.96,311.92 L 485.35,316.17 L 492.31,320.58 L 498.74,324.97 L 504.58,329.18 L 509.78,333.05 L 514.32,336.42 L 518.25,339.15 L 521.62,341.11 L 524.51,342.21 L 527.02,342.37 L 529.29,341.56 L 531.45,339.77 L 533.64,337.02 L 536.00,333.36 L 538.66,328.89 L 541.72,323.71 L 545.27,317.97 L 549.39,311.82 L 554.09,305.43 L 559.38,298.99 L 565.23,292.68 L 571.57,286.69 L 578.31,281.19 L 585.32,276.35 L 592.46,272.30 L 599.57,269.17 L 606.48,267.04 L 613.03,265.99 L 619.05,266.03 L 624.39,267.18 L 628.93,269.39 L 632.57,272.60 L 635.24,276.72 L 636.92,281.63 L 637.61,287.18 L 637.36,293.24 L 636.28,299.62 L 634.49,306.16 L 632.15,312.69 L 629.47,319.04 L 626.67,325.06 L 623.97,330.61 L 621.63,335.58 L 619.87,339.85 L 618.92,343.38 L 618.98,346.11 L 620.24,348.02 L 622.84,349.15 L 626.85,349.52 L 632.34,349.20 L 639.29,348.28 L 647.66,346.86 L 657.32,345.06 L 668.11,343.01 L 679.84,340.84 L 692.25,338.69 L 705.07,336.66 L 718.00,334.90 L 730.74,333.50 L 742.97,332.54 L 754.39,332.10 L 764.74,332.23 L 773.76,332.95 L 781.25,334.26 L 787.06,336.16 L 791.09,338.60 L 793.30,341.54 L 793.74,344.89 L 792.48,348.59 L 789.69,352.53 L 785.59,356.64 L 780.43,360.81 L 774.54,364.96 L 768.25,368.99 L 761.93,372.85 L 755.96,376.46 L 750.71,379.78 L 746.55,382.77 L 743.80,385.43 L 742.75,387.75 L 743.65,389.76 L 746.67,391.48 L 751.92,392.96 L 759.44,394.25 L 769.20,395.42 L 781.08,396.53 L 794.90,397.66 L 810.41,398.86 L 827.30,400.19 L 845.19,401.72 L 863.69,403.48 L 882.36,405.51 L 900.75,407.81 L 918.42,410.40 L 934.92,413.26 Z" fill="none" stroke="#444444" stroke-width="1.08" stroke-linecap="round" stroke-linejoin="round"/><circle cx="949.85" cy="416.36" r="8" fill="red"/><text x="961.85" y="404.36" fill="lime" font-family="sans-serif" font-size="14">START</text></svg>