<svg xmlns="http://www.w3.org/2000/svg" width="1100" height="800" viewBox="0 0 1100 800"><rect width="100%" height="100%" fill="black"/><path d="M 921.73,411.29 L 930.61,417.68 L 939.84,424.32 L 949.10,431.22 L 958.06,438.38 L 966.42,445.75 L 973.87,453.28 L 980.16,460.92 L 985.05,468.58 L 988.38,476.18 L 990.00,483.62 L 989.85,490.83 L 987.92,497.71 L 984.23,504.19 L 978.90,510.21 L 972.05,515.73 L 963.88,520.72 L 954.62,525.18 L 944.52,529.14 L 933.86,532.63 L 922.90,535.74 L 911.95,538.54 L 901.25,541.15 L 891.07,543.67 L 881.61,546.23 L 873.06,548.98 L 865.56,552.02 L 859.20,555.49 L 854.01,559.48 L 850.00,564.10 L 847.09,569.39 L 845.20,575.41 L 844.16,582.15 L 843.80,589.59 L 843.91,597.68 L 844.26,606.32 L 844.61,615.39 L 844.72,624.75 L 844.35,634.21 L 843.28,643.60 L 841.32,652.71 L 838.29,661.33 L 834.08,669.25 L 828.58,676.27 L 821.76,682.21 L 813.61,686.91 L 804.17,690.24 L 793.52,692.09 L 781.79,692.41 L 769.11,691.18 L 755.66,688.42 L 741.65,684.20 L 727.27,678.63 L 712.73,671.85 L 698.24,664.06 L 684.00,655.45 L 670.17,646.28 L 656.92,636.79 L 644.35,627.25 L 632.57,617.91 L 621.63,609.04 L 611.55,600.87 L 602.31,593.61 L 593.88,587.46 L 586.18,582.56 L 579.12,579.01 L 572.59,576.88 L 566.44,576.20 L 560.57,576.92 L 554.82,578.99 L 549.08,582.28 L 543.23,586.64 L 537.18,591.90 L 530.85,597.84 L 524.20,604.23 L 517.19,610.84 L 509.84,617.44 L 502.18,623.78 L 494.25,629.64 L 486.13,634.84 L 477.91,639.20 L 469.70,642.59 L 461.60,644.91 L 453.72,646.09 L 446.16,646.13 L 439.00,645.04 L 432.33,642.89 L 426.18,639.79 L 420.57,635.86 L 415.50,631.27 L 410.94,626.19 L 406.80,620.83 L 402.99,615.37 L 399.40,610.03 L 395.86,604.98 L 392.22,600.41 L 388.31,596.46 L 383.94,593.25 L 378.95,590.89 L 373.16,589.42 L 366.45,588.87 L 358.68,589.21 L 349.78,590.39 L 339.70,592.32 L 328.43,594.89 L 316.01,597.94 L 302.52,601.31 L 288.10,604.81 L 272.90,608.27 L 257.15,611.47 L 241.08,614.26 L 224.95,616.44 L 209.06,617.86 L 193.68,618.39 L 179.12,617.93 L 165.66,616.41 L 153.55,613.77 L 143.02,610.01 L 134.26,605.16 L 127.43,599.27 L 122.62,592.42 L 119.87,584.72 L 119.16,576.30 L 120.42,567.30 L 123.52,557.86 L 128.27,548.15 L 134.44,538.32 L 141.76,528.50 L 149.93,518.84 L 158.62,509.44 L 167.50,500.39 L 176.22,491.78 L 184.45,483.63 L 191.90,475.98 L 198.27,468.82 L 203.35,462.12 L 206.93,455.83 L 208.89,449.90 L 209.15,444.23 L 207.69,438.75 L 204.57,433.36 L 199.88,427.97 L 193.79,422.50 L 186.50,416.88 L 178.27,411.03 L 169.39,404.93 L 160.16,398.53 L 150.90,391.83 L 141.94,384.85 L 133.58,377.61 L 126.13,370.17 L 119.84,362.59 L 114.95,354.95 L 111.62,347.33 L 110.00,339.83 L 110.15,332.53 L 112.08,325.51 L 115.77,318.86 L 121.10,312.63 L 127.95,306.87 L 136.12,301.60 L 145.38,296.82 L 155.48,292.51 L 166.14,288.63 L 177.10,285.10 L 188.05,281.84 L 198.75,278.75 L 208.93,275.72 L 218.39,272.60 L 226.94,269.28 L 234.44,265.63 L 240.80,261.53 L 245.99,256.88 L 250.00,251.59 L 252.91,245.58 L 254.80,238.84 L 255.84,231.35 L 256.20,223.14 L 256.09,214.27 L 255.74,204.83 L 255.39,194.95 L 255.28,184.76 L 255.65,174.45 L 256.72,164.21 L 258.68,154.25 L 261.71,144.77 L 265.92,135.98 L 271.42,128.08 L 278.24,121.27 L 286.39,115.70 L 295.83,111.50 L 306.48,108.77 L 318.21,107.59 L 330.89,107.96 L 344.34,109.87 L 358.35,113.25 L 372.73,118.00 L 387.27,123.96 L 401.76,130.95 L 416.00,138.77 L 429.83,147.18 L 443.08,155.92 L 455.65,164.74 L 467.43,173.37 L 478.37,181.56 L 488.45,189.07 L 497.69,195.70 L 506.12,201.25 L 513.82,205.57 L 520.88,208.57 L 527.41,210.18 L 533.56,210.38 L 539.43,209.20 L 545.18,206.72 L 550.92,203.04 L 556.77,198.33 L 562.82,192.75 L 569.15,186.53 L 575.80,179.89 L 582.81,173.07 L 590.16,166.31 L 597.82,159.84 L 605.75,153.88 L 613.87,148.62 L 622.09,144.24 L 630.30,140.87 L 638.40,138.62 L 646.28,137.53 L 653.84,137.63 L 661.00,138.88 L 667.67,141.24 L 673.82,144.59 L 679.43,148.80 L 684.50,153.70 L 689.06,159.13 L 693.20,164.88 L 697.01,170.76 L 700.60,176.56 L 704.14,182.09 L 707.78,187.18 L 711.69,191.68 L 716.06,195.46 L 721.05,198.43 L 726.84,200.53 L 733.55,201.74 L 741.32,202.08 L 750.22,201.61 L 760.30,200.40 L 771.57,198.58 L 783.99,196.30 L 797.48,193.72 L 811.90,191.01 L 827.10,188.37 L 842.85,185.99 L 858.92,184.05 L 875.05,182.72 L 890.94,182.16 L 906.32,182.48 L 920.88,183.81 L 934.34,186.21 L 946.45,189.72 L 956.98,194.35 L 965.74,200.08 L 972.57,206.84 L 977.38,214.55 L 980.13,223.11 L 980.84,232.38 L 979.58,242.22 L 976.48,252.48 L 971.73,263.01 L 965.56,273.64 L 958.24,284.24 L 950.07,294.68 L 941.38,304.82 L 932.50,314.59 L 923.78,323.92 L 915.55,332.74 L 908.10,341.05 L 901.73,348.84 L 896.65,356.15 L 893.07,363.01 L 891.11,369.50 L 890.85,375.68 L 892.31,381.65 L 895.43,387.49 L 900.12,393.30 L 906.21,399.15 L 913.50,405.13 Z" fill="none" stroke="white" stroke-width="11.95" stroke-linecap="round" stroke-linejoin="round"/><path d="M 921.73,411.29 L 930.61,417.68 L 939.84,424.32 L 949.10,431.22 L 958.06,438.38 L 966.42,445.75 L 973.87,453.28 L 980.16,460.92 L 985.05,468.58 L 988.38,476.18 L 990.00,483.62 L 989.85,490.83 L 987.92,497.71 L 984.23,504.19 L 978.90,510.21 L 972.05,515.73 L 963.88,520.72 L 954.62,525.18 L 944.52,529.14 L 933.86,532.63 L 922.90,535.74 L 911.95,538.54 L 901.25,541.15 L 891.07,543.67 L 881.61,546.23 L 873.06,548.98 L 865.56,552.02 L 859.20,555.49 L 854.01,559.48 L 850.00,564.10 L 847.09,569.39 L 845.20,575.41 L 844.16,582.15 L 843.80,589.59 L 843.91,597.68 L 844.26,606.32 L 844.61,615.39 L 844.72,624.75 L 844.35,634.21 L 843.28,643.60 L 841.32,652.71 L 838.29,661.33 L 834.08,669.25 L 828.58,676.27 L 821.76,682.21 L 813.61,686.91 L 804.17,690.24 L 793.52,692.09 L 781.79,692.41 L 769.11,691.18 L 755.66,688.42 L 741.65,684.20 L 727.27,678.63 L 712.73,671.85 L 698.24,664.06 L 684.00,655.45 L 670.17,646.28 L 656.92,636.79 L 644.35,627.25 L 632.57,617.91 L 621.63,609.04 L 611.55,600.87 L 602.31,593.61 L 593.88,587.46 L 586.18,582.56 L 579.12,579.01 L 572.59,576.88 L 566.44,576.20 L 560.57,576.92 L 554.82,578.99 L 549.08,582.28 L 543.23,586.64 L 537.18,591.90 L 530.85,597.84 L 524.20,604.23 L 517.19,610.84 L 509.84,617.44 L 502.18,623.78 L 494.25,629.64 L 486.13,634.84 L 477.91,639.20 L 469.70,642.59 L 461.60,644.91 L 453.72,646.09 L 446.16,646.13 L 439.00,645.04 L 432.33,642.89 L 426.18,639.79 L 420.57,635.86 L 415.50,631.27 L 410.94,626.19 L 406.80,620.83 L 402.99,615.37 L 399.40,610.03 L 395.86,604.98 L 392.22,600.41 L 388.31,596.46 L 383.94,593.25 L 378.95,590.89 L 373.16,589.42 L 366.45,588.87 L 358.68,589.21 L 349.78,590.39 L 339.70,592.32 L 328.43,594.89 L 316.01,597.94 L 302.52,601.31 L 288.10,604.81 L 272.90,608.27 L 257.15,611.47 L 241.08,614.26 L 224.95,616.44 L 209.06,617.86 L 193.68,618.39 L 179.12,617.93 L 165.66,616.41 L 153.55,613.77 L 143.02,610.01 L 134.26,605.16 L 127.43,599.27 L 122.62,592.42 L 119.87,584.72 L 119.16,576.30 L 120.42,567.30 L 123.52,557.86 L 128.27,548.15 L 134.44,538.32 L 141.76,528.50 L 149.93,518.84 L 158.62,509.44 L 167.50,500.39 L 176.22,491.78 L 184.45,483.63 L 191.90,475.98 L 198.27,468.82 L 203.35,462.12 L 206.93,455.83 L 208.89,449.90 L 209.15,444.23 L 207.69,438.75 L 204.57,433.36 L 199.88,427.97 L 193.79,422.50 L 186.50,416.88 L 178.27,411.03 L 169.39,404.93 L 160.16,398.53 L 150.90,391.83 L 141.94,384.85 L 133.58,377.61 L 126.13,370.17 L 119.84,362.59 L 114.95,354.95 L 111.62,347.33 L 110.00,339.83 L 110.15,332.53 L 112.08,325.51 L 115.77,318.86 L 121.10,312.63 L 127.95,306.87 L 136.12,301.60 L 145.38,296.82 L 155.48,292.51 L 166.14,288.63 L 177.10,285.10 L 188.05,281.84 L 198.75,278.75 L 208.93,275.72 L 218.39,272.60 L 226.94,269.28 L 234.44,265.63 L 240.80,261.53 L 245.99,256.88 L 250.00,251.59 L 252.91,245.58 L 254.80,238.84 L 255.84,231.35 L 256.20,223.14 L 256.09,214.27 L 255.74,204.83 L 255.39,194.95 L 255.28,184.76 L 255.65,174.45 L 256.72,164.21 L 258.68,154.25 L 261.71,144.77 L 265.92,135.98 L 271.42,128.08 L 278.24,121.27 L 286.39,115.70 L 295.83,111.50 L 306.48,108.77 L 318.21,107.59 L 330.89,107.96 L 344.34,109.87 L 358.35,113.25 L 372.73,118.00 L 387.27,123.96 L 401.76,130.95 L 416.00,138.77 L 429.83,147.18 L 443.08,155.92 L 455.65,164.74 L 467.43,173.37 L 478.37,181.56 L 488.45,189.07 L 497.69,195.70 L 506.12,201.25 L 513.82,205.57 L 520.88,208.57 L 527.41,210.18 L 533.56,210.38 L 539.43,209.20 L 545.18,206.72 L 550.92,203.04 L 556.77,198.33 L 562.82,192.75 L 569.15,186.53 L 575.80,179.89 L 582.81,173.07 L 590.16,166.31 L 597.82,159.84 L 605.75,153.88 L 613.87,148.62 L 622.09,144.24 L 630.30,140.87 L 638.40,138.62 L 646.28,137.53 L 653.84,137.63 L 661.00,138.88 L 667.67,141.24 L 673.82,144.59 L 679.43,148.80 L 684.50,153.70 L 689.06,159.13 L 693.20,164.88 L 697.01,170.76 L 700.60,176.56 L 704.14,182.09 L 707.78,187.18 L 711.69,191.68 L 716.06,195.46 L 721.05,198.43 L 726.84,200.53 L 733.55,201.74 L 741.32,202.08 L 750.22,201.61 L 760.30,200.40 L 771.57,198.58 L 783.99,196.30 L 797.48,193.72 L 811.90,191.01 L 827.10,188.37 L 842.85,185.99 L 858.92,184.05 L 875.05,182.72 L 890.94,182.16 L 906.32,182.48 L 920.88,183.81 L 934.34,186.21 L 946.45,189.72 L 956.98,194.35 L 965.74,200.08 L 972.57,206.84 L 977.38,214.55 L 980.13,223.11 L 980.84,232.38 L 979.58,242.22 L 976.48,252.48 L 971.73,263.01 L 965.56,273.64 L 958.24,284.24 L 950.07,294.68 L 941.38,304.82 L 932.50,314.59 L 923.78,323.92 L 915.55,332.74 L 908.10,341.05 L 901.73,348.84 L 896.65,356.15 L 893.07,363.01 L 891.11,369.50 L 890.85,375.68 L 892.31,381.65 L 895.43,387.49 L 900.12,393.30 L 906.21,399.15 L 913.50,405.13 Z" fill="none" stroke="#444444" stroke-width="1.99" stroke-linecap="round" stroke-linejoin="round"/><circle cx="921.73" cy="411.29" r="8" fill="red"/><text x="933.73" y="399.29" fill="lime" font-family="sans-serif" font-size="14">START</text></svg>